<svg width="22" height="22" viewBox="0 0 22 22" fill="none" xmlns="http://www.w3.org/2000/svg">
<path d="M19.7572 21.4722C20.1702 21.8895 20.84 21.8895 21.253 21.4722C21.6661 21.0548 21.6661 20.3782 21.253 19.9608L12.6032 11.2213L21.6912 2.0392C22.1042 1.62185 22.1042 0.945187 21.6912 0.527834C21.2781 0.110482 20.6084 0.110482 20.1953 0.527834L11.1073 9.70997L1.80666 0.313014C1.39358 -0.104338 0.723857 -0.104338 0.310782 0.313015C-0.102292 0.730367 -0.102292 1.40703 0.310783 1.82438L9.61141 11.2213L0.748914 20.1756C0.335839 20.593 0.33584 21.2696 0.748914 21.687C1.16199 22.1043 1.83172 22.1043 2.24479 21.687L11.1073 12.7327L19.7572 21.4722Z" fill="#959595"/>
</svg>
