<svg width="94" height="32" viewBox="0 0 94 32" fill="none" xmlns="http://www.w3.org/2000/svg">
<path d="M6.21883 31.6599H6.10352e-05L11.3226 0H18.515L29.8533 31.6599H23.6345L15.0445 6.49275H14.7932L6.21883 31.6599ZM6.42298 19.2464H23.3833V23.8531H6.42298V19.2464Z" fill="white" fill-opacity="0.4"/>
<path d="M37.3402 32C36.3875 32 35.5708 31.6702 34.8903 31.0106C34.2098 30.351 33.8748 29.5472 33.8853 28.599C33.8748 27.6715 34.2098 26.8779 34.8903 26.2184C35.5708 25.5588 36.3875 25.229 37.3402 25.229C38.2615 25.229 39.0624 25.5588 39.7429 26.2184C40.4338 26.8779 40.7846 27.6715 40.795 28.599C40.7846 29.2277 40.6171 29.7997 40.2925 30.315C39.9784 30.8303 39.5597 31.2425 39.0362 31.5517C38.5232 31.8506 37.9578 32 37.3402 32Z" fill="white" fill-opacity="0.4"/>
<path d="M76.1604 31.6599L65.5759 17.8242H62.7178V31.6599H56.8916V0H62.7178V13.0164H64.1782L75.6107 0H82.7874L70.0829 14.4386L83.3371 31.6599H76.1604Z" fill="white" fill-opacity="0.4"/>
<path d="M90.5452 32C89.5925 32 88.7759 31.6702 88.0954 31.0106C87.4149 30.351 87.0798 29.5472 87.0903 28.599C87.0798 27.6715 87.4149 26.8779 88.0954 26.2184C88.7759 25.5588 89.5925 25.229 90.5452 25.229C91.4665 25.229 92.2674 25.5588 92.9479 26.2184C93.6389 26.8779 93.9896 27.6715 94.0001 28.599C93.9896 29.2277 93.8221 29.7997 93.4975 30.315C93.1834 30.8303 92.7647 31.2425 92.2412 31.5517C91.7282 31.8506 91.1629 32 90.5452 32Z" fill="white" fill-opacity="0.4"/>
</svg>
